<svg xmlns="http://www.w3.org/2000/svg" viewBox="0 0 100 100">
  <defs>
    <linearGradient id="goldGradient" x1="0%" y1="0%" x2="100%" y2="100%">
      <stop offset="0%" stop-color="#FFD700" />
      <stop offset="50%" stop-color="#D4AF37" />
      <stop offset="100%" stop-color="#B8860B" />
    </linearGradient>
  </defs>
  <!-- Decorative Top / Cap -->
  <path d="M 50,5 C 60,5 68,12 68,22 C 68,28 64,33 58,35 L 58,40 L 42,40 L 42,35 C 36,33 32,28 32,22 C 32,12 40,5 50,5 Z" fill="url(#goldGradient)" />
  <path d="M 40,40 L 60,40 L 62,45 L 38,45 Z" fill="#B8860B" />
  
  <!-- Tassel Threads -->
  <path d="M 40,45 L 38,95 C 38,97 39,98 40,98 C 41,98 42,97 42,95 L 43,45 Z" fill="url(#goldGradient)" />
  <path d="M 45,45 L 44,95 C 44,97 45,98 46,98 C 47,98 48,97 48,95 L 48,45 Z" fill="url(#goldGradient)" />
  <path d="M 50,45 L 50,96 C 50,98 51,99 52,99 C 53,99 54,98 54,96 L 54,45 Z" fill="url(#goldGradient)" />
  <path d="M 55,45 L 56,95 C 56,97 57,98 58,98 C 59,98 60,97 60,95 L 59,45 Z" fill="url(#goldGradient)" />
  <path d="M 60,45 L 62,95 C 62,97 61,98 60,98 C 59,98 58,97 58,95 L 57,45 Z" fill="url(#goldGradient)" transform="translate(-5,0) scale(-1, 1) translate(-115,0)" />
  
  <!-- Detail lines -->
  <path d="M 45,15 Q 50,10 55,15" fill="none" stroke="#FFFFFF" stroke-width="1.5" opacity="0.5" />
  <path d="M 43,22 Q 50,18 57,22" fill="none" stroke="#FFFFFF" stroke-width="1.5" opacity="0.3" />
</svg>
